<svg width="38" height="38" viewBox="0 0 38 38" fill="none" xmlns="http://www.w3.org/2000/svg">
<g id="Page 1">
<path id="Stroke 1" fill-rule="evenodd" clip-rule="evenodd" d="M36.9555 18.996C36.9555 28.9147 28.9149 36.9552 18.9963 36.9552C9.07765 36.9552 1.03711 28.9147 1.03711 18.996C1.03711 9.0774 9.07765 1.03687 18.9963 1.03687C28.9149 1.03687 36.9555 9.0774 36.9555 18.996Z" stroke="#0B1153" stroke-width="1.67344" stroke-linecap="round" stroke-linejoin="round"/>
<path id="Stroke 3" fill-rule="evenodd" clip-rule="evenodd" d="M26.5857 23.7937H21.5667L18.8723 27.9327L16.4259 23.7937H11.407C10.4437 23.7937 9.72656 23.0205 9.72656 22.0572V13.7722C9.72656 12.8087 10.4437 12.0269 11.407 12.0269H26.5857C27.549 12.0269 28.357 12.8087 28.357 13.7722V22.0572C28.357 23.0205 27.549 23.7937 26.5857 23.7937Z" stroke="#028DFF" stroke-width="1.67344" stroke-linecap="round" stroke-linejoin="round"/>
</g>
</svg>
